<svg xmlns="http://www.w3.org/2000/svg" viewBox="0 0 300 300"><defs><style>.cls-1{fill:none;}.cls-2{fill:#fff;}</style></defs><g id="レイヤー_2" data-name="レイヤー 2"><g id="レイヤー_2-2" data-name="レイヤー 2"><rect class="cls-1" width="300" height="300"/><path class="cls-2" d="M194.28,166.41c0-11.57.15-23.15-.08-34.72-.09-4.36,1.2-5.86,5.77-6,17.05-.48,17.05-.66,17.05,16,0,19.72-.17,39.45.11,59.17.07,5.39-1.35,7.24-7,7.2-15.85-.12-15.86.14-15.86-15.61Q194.27,179.44,194.28,166.41Z"/><path class="cls-2" d="M206,92c8.31,0,12.54,4.34,12.4,12.69-.13,7.68-5.39,13-12.79,13a12.85,12.85,0,0,1-12.73-13.18C192.91,96.92,198.15,92,206,92Z"/><path class="cls-2" d="M144.56,101.57a48.27,48.27,0,0,0-24.58-.16,96.73,96.73,0,0,0-4.8,10.37c-1.44,3.65-2.29,6.46-2.59,7.44C111,124.43,103.72,145.71,83.9,202l-2.29,5.82,22.68.06q4.35-12.17,8.71-24.32h36.14l11.55,24.16,23.08.23Zm-25.68,60.35c4.22-13.54,8.23-26.44,12.84-41.25q6.18,20.69,12.38,41.38Z"/></g></g></svg>