<svg xmlns="http://www.w3.org/2000/svg" viewBox="0 0 300 300"><defs><style>.cls-1{fill:none;}.cls-2{fill:#fff;}</style></defs><g id="レイヤー_2" data-name="レイヤー 2"><g id="レイヤー_2-2" data-name="レイヤー 2"><rect class="cls-1" width="300" height="300"/><path class="cls-2" d="M152.16,108.3q-1.29,5.39-2.57,10.76c-2.3,9.57-4.58,19.15-6.9,28.72-.63,2.6-1.51,3.26-4.2,3.34-1.28,0-2.57,0-3.86,0-3.66,0-4.38-.61-5.44-4.16-2-6.72-4-13.42-6.07-20.14-2.93-9.73-5.88-19.45-8.76-29.2-.77-2.58-.19-3.23,2.55-3.25,1.42,0,2.84,0,4.25,0,3.21,0,4,.57,4.8,3.59,1.35,5.23,2.65,10.48,4,15.72q2.94,11.68,5.9,23.39a14,14,0,0,0,.66,1.51c1-4.26,1.9-8,2.79-11.82q3.43-14.57,6.89-29.11c.64-2.69,1.39-3.24,4.18-3.28,1.61,0,3.22,0,4.83,0,2.47.06,3.3.73,3.87,3.18q3.49,14.74,6.95,29.49c.91,3.88,1.81,7.77,3.11,11.74.43-1.59.89-3.19,1.3-4.79q4.69-18.12,9.39-36.24c.74-2.83,1.48-3.35,4.33-3.39,1.54,0,3.09,0,4.64,0,2.31,0,2.94.81,2.29,3-1.38,4.69-2.84,9.36-4.3,14q-5.56,17.87-11.14,35.73c-1.06,3.42-1.72,4-5.37,4-1.29,0-2.58,0-3.87,0-2.73-.1-3.61-.83-4.27-3.53q-4.52-18.76-9-37.53c-.14-.59-.36-1.17-.54-1.76Z"/><path class="cls-2" d="M148.9,207.32c-34.63-.54-65.53-11.77-92-34.7-.29-.25-.68-.47-.84-.79-.4-.83-.71-1.71-1.05-2.57a7.87,7.87,0,0,1,2.77.16c2.44,1.14,4.77,2.53,7.16,3.79a182,182,0,0,0,41.68,15.55,188.34,188.34,0,0,0,47.82,5.41,183.55,183.55,0,0,0,31.44-3.27,186.71,186.71,0,0,0,36.56-10.85,5,5,0,0,1,2.18-.71c1.11.13,2.57.35,3.15,1.11.9,1.15.12,2.48-1.05,3.27-2.78,1.87-5.53,3.79-8.41,5.49a129.54,129.54,0,0,1-37.13,14.33A153.24,153.24,0,0,1,148.9,207.32Z"/><path class="cls-2" d="M97.41,119.08c.15-4.28.59-8.47-1.37-12.38-1.87-3.72-5.43-4.5-9.1-4.85-5.52-.53-10.75.78-15.84,2.77-4.74,1.85-5.1,1.56-5.12-3.49a4.44,4.44,0,0,1,3-4.63c8.66-3.77,17.54-5,26.77-2.56,6.83,1.81,10.62,6.5,11.9,13.27a43.51,43.51,0,0,1,.65,7.48c.09,6.38.11,12.75,0,19.13a19.85,19.85,0,0,0,2.31,9.83c1.43,2.69,1.21,3.31-1.36,5-.85.58-1.69,1.17-2.56,1.72-2,1.3-3.15,1.23-4.68-.69-1.36-1.69-2.45-3.59-4.33-6.2a7.39,7.39,0,0,1-1,2.08c-7,6.62-15.14,8.62-24.24,5.62-5.75-1.9-9-6.32-9.84-12.3-1.93-13,6.94-20.42,18-21.37a53.24,53.24,0,0,1,15.35,1.32C96.33,119,96.77,119,97.41,119.08Zm.11,10.77a8.14,8.14,0,0,0,0-2.07,1.86,1.86,0,0,0-1-1.27c-5.24-1.14-10.52-1.91-15.85-.64A8.54,8.54,0,0,0,73.65,133c-.94,4.85,1.18,9.21,5.12,10.42A14.32,14.32,0,0,0,97.52,129.85Z"/><path class="cls-2" d="M214.52,152.7a40.71,40.71,0,0,1-14.36-2.59c-4.42-1.69-5.21-3-4.82-7.74.17-2.13,1-2.68,3.09-2,2.93.95,5.81,2.14,8.81,2.79,4.68,1,9.45,1.28,14.11-.33a7.27,7.27,0,0,0,4.88-4.33c1.34-3.67,0-7.07-3.85-8.7-3.66-1.54-7.52-2.61-11.28-4a49,49,0,0,1-6.44-2.55c-5.37-2.83-8.4-7.35-8.59-13.47s2.88-10.69,8-13.82c5.42-3.3,11.44-3.82,17.55-3a47.2,47.2,0,0,1,9,2.28c3.49,1.22,4.85,4.69,3.55,8.19-.57,1.55-1.68,1.35-2.84.84a28.62,28.62,0,0,0-11.95-2.74,39.47,39.47,0,0,0-7.44.78,6.45,6.45,0,0,0-1.24,12.25c4.25,1.8,8.69,3.17,13.05,4.73,1.33.48,2.69.89,4,1.47,5.6,2.47,9.24,6.5,9.65,12.84a15.92,15.92,0,0,1-7.36,15C225.33,151.87,220,152.74,214.52,152.7Z"/><path class="cls-2" d="M225.21,171.51c-4.35.37-8.7.76-13.06,1.06a7.15,7.15,0,0,1-2-.45,7.34,7.34,0,0,1,1.3-1.72,29,29,0,0,1,12.31-4.74,41.8,41.8,0,0,1,17.43.32c2.92.71,4.06,1.8,3.82,4.84-.82,10.48-4,20-11.86,27.47a3,3,0,0,1-.9.71,6.67,6.67,0,0,1-1.43.21,3.69,3.69,0,0,1-.15-1.44c.78-2.24,1.76-4.42,2.49-6.68,1.19-3.72,2.42-7.46,3.34-11.25,1.28-5.28-.8-7.86-6.23-8.07-1.67-.07-3.35,0-5,0Z"/></g></g></svg>