<svg xmlns="http://www.w3.org/2000/svg" viewBox="0 0 300 300"><defs><style>.cls-1{fill:none;}.cls-2{fill:#fff;}</style></defs><g id="レイヤー_2" data-name="レイヤー 2"><g id="レイヤー_2-2" data-name="レイヤー 2"><rect class="cls-1" width="300" height="300"/><path class="cls-2" d="M190.27,55.1v9.2h-7.93c2.43,2.52,4.68,4.71,6.75,7.06a5.32,5.32,0,0,1,1.19,2.88c.18,2.08.05,4.19.05,6.42H169.48v-8h8.26a62.2,62.2,0,0,0-5.24-5.15,7.69,7.69,0,0,1-3.17-7.72,37.91,37.91,0,0,0,0-4.65Z"/><path class="cls-2" d="M160.42,55.1c.05,2.67.07,5.34.16,8,0,1-.5,1.24-1.39,1.22-2.14,0-4.28,0-6.75,0,2.55,2.59,4.85,4.82,7,7.18a4.48,4.48,0,0,1,1.07,2.57c.15,2.15,0,4.32,0,6.59H139.66v-8h8.11c-.6-.72-.89-1.12-1.24-1.48-.73-.76-1.49-1.49-2.25-2.23-5.22-5.16-5.43-5.73-4.71-13a3.56,3.56,0,0,1,.33-.85Z"/><path class="cls-2" d="M130.58,55.1v9.15H118.74v8.26h11.71v8.16H109.68V55.1Z"/><path class="cls-2" d="M218,92c-.34,3.83-.65,7.54-1,11.24q-1.8,19.61-3.62,39.2-2,21.18-3.94,42.36-1.77,19.14-3.51,38.28c-.18,1.92-.39,3.83-.51,5.76a1.71,1.71,0,0,1-1.48,1.77q-26.43,7.08-52.87,14.2a5.11,5.11,0,0,1-2.54-.11c-17.39-4.64-34.77-9.34-52.16-14a2.19,2.19,0,0,1-1.89-2.26q-1.7-19-3.46-38.09l-3.57-38.46q-1.58-17-3.13-34-1-11.33-2.1-22.66c-.1-1-.14-2.09-.21-3.26Zm-67.15,62.27-.1-.41c.54-.25,1.07-.52,1.62-.76,10.9-4.66,21.73-9.51,32.74-13.89,4-1.58,6.7-3.36,6.08-8.07a1.64,1.64,0,0,1,0-.37c.34-3.51.69-7,1-10.6H106.82l2,16.52h42.41a3.49,3.49,0,0,1-1.51,1.06l-34.37,14.33c-1.6.67-3.8,1-4.59,2.21s-.07,3.32,0,5c0,.31,0,.63,0,.94.28,3.38.57,6.76.88,10.42h58.71c-.42,7.07-.85,13.83-1.2,20.6-.06,1.17-.76,1.4-1.63,1.64-5.56,1.55-11.11,3.13-16.68,4.64a5,5,0,0,1-2.33,0c-5.13-1.24-10.23-2.6-15.37-3.78a2.4,2.4,0,0,1-2.21-2.58c-.21-3.77-.57-7.54-.88-11.37H112.94c0,.52,0,.89,0,1.25.64,7.63,1.34,15.24,1.9,22.87a2.27,2.27,0,0,0,1.93,2.41c10.61,3.08,21.19,6.25,31.8,9.34a5.44,5.44,0,0,0,2.86,0q14.87-4.26,29.67-8.64c3.7-1.08,3.62-1.1,3.94-4.9.91-11,1.9-21.93,2.85-32.89.42-4.94.83-9.89,1.26-15Z"/></g></g></svg>