<svg xmlns="http://www.w3.org/2000/svg" viewBox="0 0 300 300"><defs><style>.cls-1{fill:none;}.cls-2{fill:#fff;}</style></defs><g id="レイヤー_2" data-name="レイヤー 2"><g id="レイヤー_2-2" data-name="レイヤー 2"><rect class="cls-1" width="300" height="300"/><path class="cls-2" d="M88.71,105.68a3.6,3.6,0,0,1,.15.71c0,4.31,0,8.61,0,12.91a5.62,5.62,0,0,1-.08.58H74.91v-14.2Z"/><path class="cls-2" d="M66.64,105.68q0,31.78,0,63.56c0,.18,0,.35,0,.67-2.54.4-5.07.87-7.62,1.18a69.48,69.48,0,0,1-14.91.47,31.22,31.22,0,0,1-9.75-2.32,17.77,17.77,0,0,1-10.55-11.83,27.3,27.3,0,0,1,.3-16.68c2.92-8.4,9.16-12.85,17.76-14.26a26.43,26.43,0,0,1,10.22.18,3.47,3.47,0,0,0,.56,0c0-.26.06-.5.06-.74q0-9.85,0-19.7a4.75,4.75,0,0,0,0-.53Zm-14,43.41c0-3.32,0-6.64,0-10,0-1-.32-1.41-1.25-1.49a40.68,40.68,0,0,0-4.11-.35c-4.81.09-8.36,2.63-9.72,6.94a16,16,0,0,0-.14,9.28,8.82,8.82,0,0,0,7.9,6.82,53.44,53.44,0,0,0,6.33,0c.79,0,1-.35,1-1.11C52.67,155.87,52.69,152.48,52.69,149.09Z"/><path class="cls-2" d="M277.38,151.45c-.36,1.83-.6,3.68-1.09,5.47a20.53,20.53,0,0,1-18.71,15.31,29.36,29.36,0,0,1-11.83-1.16,18.89,18.89,0,0,1-12.63-13,28.51,28.51,0,0,1,.48-18.6c2.88-7.72,8.69-12,16.72-13.22a27.49,27.49,0,0,1,12.49.71c8.17,2.51,12.62,8.24,14.13,16.47.16.9.29,1.8.44,2.69Zm-31.26-2.7c0,3.5.37,6.56,2.22,9.24a7.73,7.73,0,0,0,12.39.29,12.61,12.61,0,0,0,2.32-6.71c.33-3.56.15-7.06-1.52-10.33a7.16,7.16,0,0,0-6.64-4.16,7.47,7.47,0,0,0-7,3.95A15.2,15.2,0,0,0,246.12,148.75Z"/><path class="cls-2" d="M184.45,178.92c1.82.7,3.56,1.46,5.36,2.05a29.65,29.65,0,0,0,13.39,1.21c5.43-.73,8.56-4.1,9-9.7.07-.84.09-1.68.15-2.72-.49.19-.82.34-1.17.45-8,2.52-15.52,1.95-22-3.83a17.62,17.62,0,0,1-5.49-11,26.11,26.11,0,0,1,1.68-14.94c2.63-5.86,7.31-9.47,13.2-11.68A44.39,44.39,0,0,1,213,126.23,86.15,86.15,0,0,1,232.48,128c.24,0,.48.13.83.23l-3.32,7c-.44.92-.68,2.18-1.42,2.65s-1.94.1-3,.1c0,1.18,0,2.4,0,3.61.11,7.91.28,15.81.32,23.72a46.35,46.35,0,0,1-1.44,13.32c-2.41,8.21-8.12,13-16.33,14.74A41.39,41.39,0,0,1,185.42,192a1.24,1.24,0,0,1-1-1.4c.05-3.57,0-7.14,0-10.7C184.41,179.55,184.44,179.24,184.45,178.92Zm27.76-41.72a49.83,49.83,0,0,0-5.26.52c-4.06.83-7.34,2.8-8.7,7a15.24,15.24,0,0,0,.07,9.87,8.05,8.05,0,0,0,6.67,5.64,15,15,0,0,0,6.29-.4c.81-.21,1.13-.52,1.11-1.41-.1-4.8-.14-9.59-.18-14.39C212.2,141.83,212.21,139.65,212.21,137.2Z"/><path class="cls-2" d="M179,171.12H165.1v-1.27q0-12.14,0-24.26c0-.92-.05-1.84-.14-2.75-.36-3.75-2.12-5.52-5.88-5.53a56.55,56.55,0,0,0-6.19.67c-.79.09-1,.49-1,1.27,0,4.35,0,8.69,0,13v18.81H138V129.2c1.87-.44,3.8-.91,5.75-1.33a73.57,73.57,0,0,1,16.73-1.77,26.16,26.16,0,0,1,10.65,2,12.19,12.19,0,0,1,7.52,10.24,46.59,46.59,0,0,1,.3,5.28c0,8.69,0,17.37,0,26.06Z"/><path class="cls-2" d="M118.39,143.14c0-1.21.07-2.34,0-3.46-.12-1.63-.88-2.62-2.57-2.72a38.88,38.88,0,0,0-7.07.21A33.81,33.81,0,0,0,98,140.6c-.21.1-.44.16-.77.28,0-3.45,0-6.8,0-10.14,0-.3.48-.72.83-.88a41.57,41.57,0,0,1,15.35-3.71,28.15,28.15,0,0,1,10.37,1.09c4.51,1.5,6.8,4.46,7.12,9.22q.2,2.91.21,5.82,0,13.4,0,26.8v1.36c-2.6.3-5.11.68-7.64.85-4.3.29-8.61.6-12.91.6a30.92,30.92,0,0,1-7.54-1c-5.65-1.42-8.48-5.1-8.65-10.91a21,21,0,0,1,.38-4.94,11.36,11.36,0,0,1,6.1-7.72,34.89,34.89,0,0,1,11.92-3.52C114.62,143.57,116.45,143.38,118.39,143.14Zm.59,9.16a33.48,33.48,0,0,0-3.59.45,44.66,44.66,0,0,0-6.37,1.83c-1.84.75-2.49,2.58-2.1,4.61.3,1.59,1.43,2.58,3.39,2.85a28.16,28.16,0,0,0,8.67-.49Z"/><path class="cls-2" d="M61.28,184.39c1.43-.78,2.7-1.46,4-2.16,5.6-3.1,8.4-8,9-14.23.38-3.85.58-7.74.61-11.61.09-9.28,0-18.57,0-27.85v-1.36h14v1.18c0,10.16,0,20.33,0,30.5a83,83,0,0,1-.9,14.34,22.1,22.1,0,0,1-12.52,16.68,2.52,2.52,0,0,1-2.53,0C69.09,188.05,65.25,186.27,61.28,184.39Z"/></g></g></svg>