<svg xmlns="http://www.w3.org/2000/svg" viewBox="0 0 300 300"><defs><style>.cls-1,.cls-2{fill:none;}.cls-2{stroke:#fff;stroke-width:15.08px;}</style></defs><g id="レイヤー_2" data-name="レイヤー 2"><g id="レイヤー_2-2" data-name="レイヤー 2"><rect class="cls-1" width="300" height="300"/><g id="Group"><path id="Rectangle_55" data-name="Rectangle 55" class="cls-2" d="M205.15,95.56a27.22,27.22,0,0,1-27.22,27.22H150V68.33h27.93a27.23,27.23,0,0,1,27.22,27.23Z"/><path id="Rectangle_55_2" data-name="Rectangle 55_2" class="cls-2" d="M94.85,95.56a27.22,27.22,0,0,0,27.22,27.22H150V68.33H122.07A27.23,27.23,0,0,0,94.85,95.56Z"/><path id="Rectangle_55_3" data-name="Rectangle 55_3" class="cls-2" d="M94.85,150a27.22,27.22,0,0,0,27.22,27.22H150V122.78H122.07A27.22,27.22,0,0,0,94.85,150Z"/><path id="Rectangle_55_4" data-name="Rectangle 55_4" class="cls-2" d="M94.85,204.44a27.37,27.37,0,0,0,27.4,27.23h0A27.73,27.73,0,0,0,150,204.09V177.22H122.07a27.22,27.22,0,0,0-27.22,27.22Z"/><path id="Rectangle_55_5" data-name="Rectangle 55_5" class="cls-2" d="M150,150a27.22,27.22,0,0,0,27.22,27.22h.71A27.22,27.22,0,0,0,205.15,150h0a27.22,27.22,0,0,0-27.22-27.22h-.71A27.22,27.22,0,0,0,150,150Z"/></g></g></g></svg>