<svg xmlns="http://www.w3.org/2000/svg" viewBox="0 0 300 300"><defs><style>.cls-1{fill:none;}.cls-2,.cls-3{fill:#fff;}.cls-2{fill-rule:evenodd;}</style></defs><g id="レイヤー_2" data-name="レイヤー 2"><g id="レイヤー_2-2" data-name="レイヤー 2"><rect class="cls-1" width="300" height="300"/><path class="cls-2" d="M150,70.51a81.51,81.51,0,0,0-25.77,158.84c4.08.76,5.57-1.77,5.57-3.92,0-1.94-.07-8.36-.11-15.17-22.67,4.93-27.46-9.62-27.46-9.62-3.71-9.42-9-11.93-9-11.93-7.39-5.06.56-5,.56-5,8.18.57,12.49,8.4,12.49,8.4,7.27,12.46,19.07,8.86,23.72,6.77.73-5.26,2.85-8.86,5.18-10.9C117,186,98,179,98,147.76a31.57,31.57,0,0,1,8.4-21.88c-.85-2.06-3.64-10.34.79-21.57,0,0,6.85-2.19,22.42,8.35a77.39,77.39,0,0,1,40.82,0c15.55-10.54,22.39-8.35,22.39-8.35,4.44,11.23,1.65,19.51.8,21.57A31.47,31.47,0,0,1,202,147.76c0,31.3-19.07,38.19-37.22,40.21,2.92,2.53,5.53,7.49,5.53,15.09,0,10.91-.09,19.69-.09,22.37,0,2.17,1.46,4.71,5.59,3.91A81.51,81.51,0,0,0,150,70.51Z"/><path class="cls-3" d="M99.37,187.53c-.18.41-.82.53-1.4.25s-.92-.82-.73-1.23.81-.53,1.4-.25.93.82.73,1.23Z"/><path class="cls-3" d="M102.67,191.21c-.39.36-1.15.2-1.67-.37a1.26,1.26,0,0,1-.24-1.7c.4-.36,1.14-.19,1.68.38s.63,1.33.23,1.69Z"/><path class="cls-3" d="M105.88,195.91c-.5.34-1.32,0-1.82-.71s-.5-1.59,0-1.94,1.31,0,1.82.68.5,1.61,0,2Z"/><path class="cls-3" d="M110.28,200.44c-.44.49-1.4.36-2.09-.31s-.91-1.59-.47-2.08,1.42-.36,2.12.31.92,1.59.44,2.08Z"/><path class="cls-3" d="M116.36,203.07c-.2.64-1.12.93-2,.66s-1.52-1-1.34-1.67,1.11-.94,2-.65,1.53,1,1.34,1.66Z"/><path class="cls-3" d="M123,203.56c0,.67-.76,1.23-1.73,1.24s-1.77-.52-1.78-1.18.77-1.23,1.74-1.25,1.77.53,1.77,1.19Z"/><path class="cls-3" d="M129.23,202.51c.12.65-.55,1.33-1.52,1.5s-1.82-.23-1.94-.88.57-1.34,1.51-1.52,1.83.23,1.95.9Z"/></g></g></svg>