<svg xmlns="http://www.w3.org/2000/svg" viewBox="0 0 300 300"><defs><style>.cls-1{fill:none;}.cls-2{fill:#fff;}</style></defs><g id="レイヤー_2" data-name="レイヤー 2"><g id="レイヤー_2-2" data-name="レイヤー 2"><rect class="cls-1" width="300" height="300"/><path class="cls-2" d="M179.48,56.07c.08.18.24.36.24.54,0,8.23,0,16.46,0,24.85h-8.52V70l-.42-.12-5.42,8.29-5.48-8.33-.36.09V81.47h-8.34V56.07H160c1.78,2.9,3.55,5.81,5.53,9.06l5.23-9.06Z"/><path class="cls-2" d="M120.1,56.07V81.48h-8.27v-8.2h-7.67v8.16H95.61c0-.58-.11-1.16-.11-1.73q0-10.86,0-21.71a12.83,12.83,0,0,1,.28-1.93h8l.48,8.31h7.49V56.07Z"/><path class="cls-2" d="M147.2,56.07l.42,8.49H140V81.5h-8.62V64.64h-7.31V56.07Z"/><path class="cls-2" d="M192.24,56.07c.09,1.31.27,2.61.28,3.92,0,4.31,0,8.62,0,13.12h11.62v8.37H183.87V56.07Z"/><path class="cls-2" d="M83.32,92.84H216.68Q210.59,161,204.53,229.08c-6.68,1.87-13.3,3.73-19.93,5.57-10.92,3-21.84,6.08-32.78,9a7.13,7.13,0,0,1-3.64,0C131.11,239,114.07,234.27,97,229.56a1.89,1.89,0,0,1-1.7-1.94Q93.21,203.31,91,179q-1.9-21.23-3.82-42.45-1.69-19-3.34-37.9C83.67,96.8,83.51,95,83.32,92.84Zm30.11,86.28c.78,8.68,1.51,17.08,2.35,25.47.06.56,1,1.33,1.59,1.51,10.6,3,21.21,6,31.82,8.89a3.9,3.9,0,0,0,1.92,0c10.54-2.89,21.07-5.84,31.62-8.72a1.92,1.92,0,0,0,1.69-2c.53-6.42,1.17-12.82,1.75-19.24q1.28-14.17,2.52-28.37c.06-.69,0-1.4,0-2.25h-2.79q-28,.06-56,.15c-1.6,0-2.19-.44-2.29-2.08-.25-4.11-.71-8.21-1.06-12.31-.07-.89,0-1.79,0-2.82h63.82c.5-5.58,1-11,1.49-16.56h-83.6c0,.6,0,1,.08,1.39,1.38,15.48,2.81,31,4.1,46.45.16,2,.69,2.54,2.68,2.54,17.6,0,35.19.08,52.79.15.77,0,1.53.07,2.42.11-.08,1.52-.11,2.78-.22,4-.47,5.22-1,10.44-1.41,15.66a2,2,0,0,1-1.74,2.14c-5.26,1.36-10.48,2.87-15.74,4.22a6.42,6.42,0,0,1-3.08,0c-4-1-8.07-2.16-12.11-3.25-4.87-1.32-4.84-1.33-5.22-6.45-.21-2.88-.54-5.76-.81-8.64Z"/></g></g></svg>