<svg xmlns="http://www.w3.org/2000/svg" viewBox="0 0 300 300"><defs><style>.cls-1{fill:none;}.cls-2{fill:#fff;}</style></defs><g id="レイヤー_2" data-name="レイヤー 2"><g id="レイヤー_2-2" data-name="レイヤー 2"><rect class="cls-1" width="300" height="300"/><g id="mWz0C9"><path class="cls-2" d="M229,229H71V71H229Zm-64.12-27.7c.19.41.28.65.4.87a26,26,0,0,0,12,11.28,34.86,34.86,0,0,0,19.27,2.79,26.55,26.55,0,0,0,12.22-4.48c10.29-7.05,10.38-24.88.24-32.41a35.33,35.33,0,0,0-4.93-3.26c-4-2-8.2-3.78-12.26-5.75a33.31,33.31,0,0,1-5.43-3.16c-2.27-1.7-2.79-4.19-2.12-6.86a5.9,5.9,0,0,1,5.28-4.49,9.18,9.18,0,0,1,9.14,3.4c.68.85,1.27,1.76,2,2.75l11.38-7.3a20.29,20.29,0,0,0-6.61-8c-8-5.08-16.37-5.3-24.91-1.84A17.16,17.16,0,0,0,170.28,156c-2.48,7.8-1.11,18.44,8.76,24.41,4.29,2.6,9,4.44,13.53,6.69a39.34,39.34,0,0,1,6.29,3.52c4.08,3.12,3.51,8.79-1,11.24a10,10,0,0,1-2.94,1.09c-6.69,1.25-12.21-.67-16.34-6.2-.57-.76-1.11-1.54-1.71-2.38Zm-40.29-5.56a1.44,1.44,0,0,0-.42.1c-3.68,2.21-7.35,4.45-11,6.65-.63.38-.54.76-.26,1.3a21.66,21.66,0,0,0,7.5,8.65c7.74,4.93,16,5.26,24.49,2.29a16.12,16.12,0,0,0,10.39-10.79,31.92,31.92,0,0,0,1.56-9c.15-16.72.07-33.43.11-50.15,0-1.08-.38-1.32-1.37-1.31-3.91,0-7.81,0-11.72,0-1.87,0-1.87,0-1.87,1.82q0,23.9,0,47.78c0,1.18,0,2.37-.14,3.54-.32,3.26-1.95,5.45-4.51,6.19a8.94,8.94,0,0,1-10.43-3.57C126,198.1,125.33,196.89,124.57,195.72Z"/></g></g></g></svg>