<svg xmlns="http://www.w3.org/2000/svg" viewBox="0 0 300 300"><defs><style>.cls-1{fill:none;}.cls-2{fill:#fff;}</style></defs><g id="レイヤー_2" data-name="レイヤー 2"><g id="レイヤー_2-2" data-name="レイヤー 2"><rect class="cls-1" width="300" height="300"/><path class="cls-2" d="M86.57,115.61h45.25v3.55H90.72v27h38.66v3.57H90.72v29.64h41.57v3.56H86.57Z"/><path class="cls-2" d="M135.93,115.59c1.62,0,3.12,0,4.62,0,.15,0,.34.2.45.35l10.8,15q4.94,6.87,9.89,13.73l.38.52.34-.42c7.11-9.67,14.18-19.37,21.36-29,3.34-4.47,6.88-8.78,10.34-13.16q9-11.47,18.07-22.93a1,1,0,0,1,.38-.33l-.35.52q-23.52,34-47.05,67.91a.74.74,0,0,0,0,1l24.4,33.63c.1.13.19.27.33.48h-2.45c-.69,0-1.38,0-2.07,0a.76.76,0,0,1-.73-.37l-22.23-30.67c-.1-.14-.21-.27-.34-.46-.12.14-.22.27-.32.4l-22.29,30.63a1,1,0,0,1-.91.47c-1.41,0-2.82,0-4.35,0l25.31-34.63Z"/><path class="cls-2" d="M105.44,220.63l-5.57-7.39c-7.54-10-15.1-20-22.58-30-2.59-3.48-5-7.13-7.41-10.7L34.65,121.36a1.8,1.8,0,0,0-.47-.49l-.19,62H29.87V115.59h1.52c1,0,2.1,0,3.15,0a.82.82,0,0,1,.79.43q12.62,18.81,25.24,37.61l44.69,66.55.26.42Z"/><path class="cls-2" d="M219.6,182.93h-4.17V119.19H191.76v-3.57h51.58v3.54H219.6Z"/><path class="cls-2" d="M269.89,167.38h-2.17a2.55,2.55,0,0,0-2.16-2,4.2,4.2,0,0,0-2.62.22,2.68,2.68,0,0,0-.74.5,1.68,1.68,0,0,0,.35,2.76,14.15,14.15,0,0,0,2.3.78c.9.27,1.83.46,2.71.78a3.49,3.49,0,0,1,2.56,3.2,4,4,0,0,1-2.18,4.1,7.26,7.26,0,0,1-6.82,0,4,4,0,0,1-2.15-3.4h2.21a2.61,2.61,0,0,0,2.13,2,4.22,4.22,0,0,0,3.73-.53,1.74,1.74,0,0,0-.22-3.08,22.34,22.34,0,0,0-3.16-1c-.64-.2-1.31-.34-1.93-.6a3.47,3.47,0,0,1-2.37-3.19,3.92,3.92,0,0,1,1.71-3.66,6.66,6.66,0,0,1,7.18.11A4,4,0,0,1,269.89,167.38Z"/><path class="cls-2" d="M253.73,163.6H256c0,.17,0,.33,0,.48,0,3.2,0,6.39,0,9.59a7,7,0,0,1-.19,1.72,3.72,3.72,0,0,1-3.17,3,4.77,4.77,0,0,1-4.56-1.22,3.7,3.7,0,0,1-1-2.76h2.08a6.35,6.35,0,0,0,.57,1.2,2.24,2.24,0,0,0,2.47.69,1.9,1.9,0,0,0,1.48-1.7,5.81,5.81,0,0,0,.07-1c0-3.1,0-6.2,0-9.31Z"/><path class="cls-2" d="M242.93,178.27a1.5,1.5,0,0,1,0-3,1.48,1.48,0,0,1,1.49,1.53A1.45,1.45,0,0,1,242.93,178.27Z"/></g></g></svg>