<svg xmlns="http://www.w3.org/2000/svg" viewBox="0 0 300 300"><defs><style>.cls-1{fill:none;}.cls-2{fill:#fff;}</style></defs><g id="レイヤー_2" data-name="レイヤー 2"><g id="レイヤー_2-2" data-name="レイヤー 2"><rect class="cls-1" width="300" height="300"/><path class="cls-2" d="M73,152.3v-4.8a3.87,3.87,0,0,0,.16-.89c.14-1.79.21-3.59.41-5.39a49.48,49.48,0,0,1,2.67-11.83,27.26,27.26,0,0,1,7-10.88,21,21,0,0,1,11.24-5.31,30.77,30.77,0,0,1,4.5-.15h50.63c.79,0,.87-.09.88-.86,0-1,0-2,0-3,0-1.32,0-1.33-1.31-1.33H113.65a.52.52,0,0,1-.56-.57c0-.27,0-.55,0-.82,0-5.51.08-11-.1-16.53a6.78,6.78,0,0,1,0-.9,11.44,11.44,0,0,1,3-6.64,20.91,20.91,0,0,1,7.43-5.11,45,45,0,0,1,10.68-3,78.77,78.77,0,0,1,11.58-1.07,4.32,4.32,0,0,0,1.34-.11h5.41a2.23,2.23,0,0,0,.81.1,74.69,74.69,0,0,1,9.8.78,48.19,48.19,0,0,1,12.38,3.29,23.66,23.66,0,0,1,8.05,5.41,15,15,0,0,1,4.21,8.86,27.3,27.3,0,0,1,0,3q0,16,0,32a30,30,0,0,1-.54,6.2,17.15,17.15,0,0,1-8.65,12,24.38,24.38,0,0,1-12,3.09c-12.2,0-24.4,0-36.59,0a28.18,28.18,0,0,0-6.41.64,18,18,0,0,0-12.72,9.87,25.44,25.44,0,0,0-2.63,11.39c0,5.73,0,11.47,0,17.2,0,1.14,0,1.17-1.19,1.17H94.91c-.3,0-.6,0-.9,0a18,18,0,0,1-11.1-5.31,27.4,27.4,0,0,1-6.48-10.52,58.28,58.28,0,0,1-3.17-17A17.81,17.81,0,0,0,73,152.3Zm56.3-67.16a6.65,6.65,0,1,0-.05,13.3,6.65,6.65,0,0,0,.05-13.3Z"/><path class="cls-2" d="M227,139.08v21.49a4.7,4.7,0,0,0-.12.51,40.47,40.47,0,0,1-1.44,6.9,30.75,30.75,0,0,1-5.91,11.47,21.07,21.07,0,0,1-10.64,6.84,25.73,25.73,0,0,1-7,.73q-25.12,0-50.26,0h-.53c-.74,0-.84.13-.86.9,0,.62,0,1.25,0,1.88s0,1.1,0,1.65.16.66.68.7c.3,0,.6,0,.9,0H186c.3,0,.6,0,.9,0,.59,0,.7.13.75.71s.09,1.2.09,1.8c0,5,0,10,0,15a11.22,11.22,0,0,1-2.33,7.07,17,17,0,0,1-4.88,4.29,36,36,0,0,1-11.14,4.16,76.1,76.1,0,0,1-13.78,1.6,99.65,99.65,0,0,1-18.43-.86,47.34,47.34,0,0,1-11.86-3.21,23.71,23.71,0,0,1-8.21-5.56,15.11,15.11,0,0,1-4-8,24.21,24.21,0,0,1-.1-3.9q0-16.35,0-32.68a25.55,25.55,0,0,1,.58-5.52,17.12,17.12,0,0,1,9.89-12.37,25.28,25.28,0,0,1,10.92-2.4q18.52,0,37,0a25.06,25.06,0,0,0,6.83-.93,17.68,17.68,0,0,0,10.83-8.14,24.23,24.23,0,0,0,3.4-12.54c0-5.81,0-11.62,0-17.43,0-1.19,0-1.22,1.23-1.22H206a9.23,9.23,0,0,1,1.05,0,17.41,17.41,0,0,1,8.63,3.41,24.28,24.28,0,0,1,7.39,9.32,44.34,44.34,0,0,1,3.53,11.69C226.75,137.35,226.88,138.22,227,139.08Zm-55.4,62.52a6.68,6.68,0,0,0,0,13.36,6.68,6.68,0,1,0,0-13.36Z"/></g></g></svg>