<svg xmlns="http://www.w3.org/2000/svg" viewBox="0 0 300 300"><defs><style>.cls-1{fill:none;}.cls-2{fill:#fff;}</style></defs><g id="レイヤー_2" data-name="レイヤー 2"><g id="レイヤー_2-2" data-name="レイヤー 2"><rect class="cls-1" width="300" height="300"/><path class="cls-2" d="M216,159.86c-.44-1.15-.61-2.44-1.83-3.17L211,149.06c.2-1.06-.5-1.74-1.12-2.45-1.08-1-2.13-2.09-3.27-3.06A2.54,2.54,0,0,0,205,143a2.09,2.09,0,0,1-1.73-1.9c-1.19-2,.87-3.84.22-5.8-.11-2.45-1.1-4.68-1.88-7a15.42,15.42,0,0,0-1.39-2.86c-1.74-2-3-4.34-5.34-5.85-4.09-2.91-4.09-2.91-1.07-5.69,1.32-1.45,3.36-2,4.64-3.54,2.37-3.17,5.42-5.87,7.07-9.53a12.25,12.25,0,0,0,1-2.12,34.23,34.23,0,0,1,1-3.31,20.21,20.21,0,0,0,.92-2.21,25.52,25.52,0,0,1,1.73-5.91c.36-1.32-.12-2.6-.26-3.89-.34-2.36.31-5.07-2.48-6.58-1.13-.73-2.57-.35-3.74-1-.9-1-2.25-.87-3.41-1.22-2-.46-4.39.82-6.09-1.16-1.33-2-3.7-1.62-5.6-2.32a23.65,23.65,0,0,0-4.75-.35c-1.5,0-3-.44-4.48-.17a5,5,0,0,0-2.36.33,4.79,4.79,0,0,1-3.27.28,8.25,8.25,0,0,0-4,.85,15,15,0,0,1-4.06.71,5.74,5.74,0,0,0-1.14.34,23.86,23.86,0,0,1-5,2.78l-.33.46c-1.95.88-3.2,2.53-4.65,4a1.49,1.49,0,0,0-1.2.16,4.44,4.44,0,0,0-.78,1c-1.11,1.36-1.09,3.49-3.13,4.24-1-1.65-1.93-3.35-3.08-4.94a16.13,16.13,0,0,0-1.88-2.08c-.4-.37-.79-.74-1.22-1.09a9.77,9.77,0,0,0-1.79-1.19c-.47-.26-1-.52-1.46-.74s-1-.45-1.54-.64c-1.59-.72-3-2-4.92-1.76-1.37-.18-2.85.46-4.14-.44l-.91-.13c-3-2.34-6.63-1.94-10.09-2.31a30.14,30.14,0,0,1-6.7.64c-1.32.21-2.59.64-3.93.79a6.61,6.61,0,0,0-3,1.24c-1.36,1.08-3,.14-4.44.57-2.66.64-4.74,2.52-7.38,3.19-3.9,1.5-2.49,5-3.1,7.72,0,.86,0,1.72,0,2.58a14.6,14.6,0,0,1,.36,4.16c.14,1.71.62,3.22,2.42,4,1.56,3.54,2.75,7.26,5.43,10.25,0,.2,0,.4,0,.6a14,14,0,0,0,2.74,3.93,2,2,0,0,0,1.71.55c2.19.78,4.39,1.55,5.24,4,.78,1.06,1.65,2.12-.17,3.06a41.31,41.31,0,0,0-3.51,2.5,31.49,31.49,0,0,0-3.16,3.58,28,28,0,0,0-2.8,4.67c-.29,2-1.73,3.73-1.24,5.86.92,3.84.5,7.27-3.26,9.66h-.65c-1.81.85-3.31,1.94-3.3,4.14l-1.48,2.06c-1.85.76-2.25,2.52-3,4-.93,2.21-1,4.59-1.38,6.89a2,2,0,0,0,.7,1.74v1.49a4.6,4.6,0,0,1,0,3.64,5,5,0,0,0,1.2,3.51c1.57,1.09.85,3.71,3.11,4.35a.94.94,0,0,1,.24,1.33,22.5,22.5,0,0,1,2.28,5.84,22.11,22.11,0,0,1,1.11,3.89,11.15,11.15,0,0,0,.28,1.14c.07.19.12.38.18.57a46.13,46.13,0,0,0,3.25,8.35c.7,1.66,1.48,3.3,2.22,4.95a28.12,28.12,0,0,0,10,8.18,30.19,30.19,0,0,1,5.26,2.74,22.63,22.63,0,0,0,4.86,3.39,34.71,34.71,0,0,1,5.31,2.76c4.13.68,6.93,3.46,10,5.87,1.91,1,3.88,1.93,5.86,2.83,2.35,1,4.93,1.07,7.35,1.77,3.68,1,7.12-.82,10.7-.88,1.59-.52,3.3-.83,4.15-2.48l2.55-1.3c2.75.07,4.16-2,6-3.43,1.26-1.24,3-1.61,4.55-2.33s2.82-1.35,4.25-2c2.88-1.36,5.21-3.61,8.26-4.67,2.85-1.12,5.21-3,7.71-4.62a13.08,13.08,0,0,0,1.3-1.17,32.49,32.49,0,0,0,3.47-3.67c.41-.64,0-1.46.52-2.08l2-3.37a6.39,6.39,0,0,0,2.67-4c.18-.78.4-1.54.63-2.3a42.48,42.48,0,0,1,1.33-4.56c1.14-3.19,2-6.5,4-9.36.77-1.6,2.54-2.78,2.13-4.86.54-1.49,1.08-3,1.61-4.46C217.08,165.42,215.61,162.51,216,159.86Zm-18.73-22c.32,3.23-.82,4.13-3.71,2.57a78.32,78.32,0,0,1-22.1-17.89c-.63-.73-1.64-1.73-.71-2.6,1.39-1.31,3.38-.82,4.95-.93C188.05,119.09,196.14,126.3,197.29,137.85Zm-6,20.37c-1.59,10.1-11.27,15.5-21.48,12-9.68-3.34-15.8-13.18-14.26-22.94,1.13-7.13,7.37-12.12,15.11-12.09C182.45,135.21,193,147,191.24,158.22Zm-37-67.34c1-3.22,2.39-6.63,5.09-8.44,2.37-1.58,5.59-2.08,7.53-4.54,2.35,2.78,4.69-1,4.77-.9,2.33,3.41,5.52-2.83,7.75.64.09.14,1.58-.86,2.32-.74,1.31.2,3.54-3.66,4,.73,0,.06.32.18.39.14,3.16-2.26,5.84,2.11,9.13.57,1.07-.5,4-1.37,3.07,2l5.93.41c1,2.11-4.86,4.35.45,6-.2.49-.68,1.07-.55,1.45.52,1.4-6.37,1.9-.51,3.86,0,0,0,.33-.09.37-3,1.49-2.74,4.68-3.82,7.06-1.43,3.15-5.27,4.53-5.85,8.11,0,.22-.33.58-.5.58-3.95-.06-5.95,3.54-9.35,4.88-4,1.59-7.26,2-11.06,1.07a20.83,20.83,0,0,1-5-1.9c-6.52-3.52-6.94-7-1.37-11.44,2.17-1.75,4.51-3.31,6.85-4.86s4.73-3,7.32-4.56c-1.38-.91-2.3-.31-3.32.15a72.72,72.72,0,0,0-15.68,9.15c-2.47,2-4,1.11-5.67-.56C153.44,97.47,153.25,94.24,154.27,90.88Zm11.29,29.72c4.91,4.2,4.33,8.73-1.49,11.66-2.88,1.45-6.84,2.21-11.75,2.24-5.37.17-10.49-.74-14.81-4-4.09-3.06-4.09-6.4-.27-9.74A22.13,22.13,0,0,1,165.56,120.6Zm-17.43,30.79c-.06,10.77-10.34,21-21,20.9-8.75-.07-15-6.59-15-15.58A21.06,21.06,0,0,1,132.9,136C141.76,136.1,148.17,142.57,148.13,151.39Zm-45.62-47.94c.9-3.1-3.63-5-3.35-5.33,2.34-3-.89-3.65-2-4.92-1.86-2.13,3.62-.91,1.31-3a21.31,21.31,0,0,1-2.84-3c4.81-2-.16-4.34.32-6.25,1.85-1.55,5.67,1.65,6.32-2.63a2.25,2.25,0,0,1,1.67-.19c3.44,2.21,6.55-2.53,9.93-.38,2.08-4.8,6.34,2.2,8.7-1.45,0-.07,1,.49,1.55.62,1,.24,2.41,3.6,3.12-.25a1.12,1.12,0,0,1,.74-.1c1.88.61,3,4,5.75,1.43,4.61,3.77,11.21,5.69,12.32,12.71.36,2.3.88,4.51-.06,6.76-1.81,4.3-4.49,5-8.35,2.44-5.46-3.66-11-7.15-17.56-8.9,5,4,10.58,7.14,15.51,11.19,3.11,2.56,2.76,4.61.45,7.12-4.37,4.74-10.27,5.49-16.34,5.77-1.12-3.84-7.12-.65-7.89-5,0-.15-.52-.31-.8-.32C106.63,109.57,106.48,104.12,102.51,103.45Zm1.89,31.92c1.54-10,9.59-16.43,21-16.63,1.59.45,4.39-1,5.34,1.13.79,1.77-1.57,3.21-2.83,4.55A87.34,87.34,0,0,1,109.78,139c-1.48.91-3.29,2.37-4.89,1.24S104.15,137,104.4,135.37Zm-9,38.61c-6.32-7.86-4.58-20.06,3.72-26.15,3.71-2.72,5.92-2,6.71,2.47a44.94,44.94,0,0,1,.33,5.58,39.41,39.41,0,0,1-4,17.49C100.12,177.42,98.2,177.49,95.37,174Zm26,33.8c-11.14-.85-21.12-12.68-19.79-23.46.7-5.59,4-7.8,9.71-6.52,9.53,2.14,18.42,13.2,18.31,22.79C129.58,205.88,126.93,208.19,121.41,207.78Zm46.76,8.42c-8.1,9.52-24.41,10-33.15.87-2.87-3-2.68-4.86,1.06-6.78a32.75,32.75,0,0,1,16-3.28c5.37-.13,10.11.45,14.52,2.47C170.39,211.21,170.77,213.14,168.17,216.2ZM152,201.89c-10.7,0-19-7.36-18.95-16.77.06-9.14,8.42-16.34,18.95-16.34s18.85,7.16,18.92,16.33C171,194.55,162.7,201.89,152,201.89Zm49.29-15.41c0,11.7-10.68,22-21.92,21.53-5-.22-6.94-2.11-7-7-.2-9.73,9-22.39,18.48-25.55,4.63-1.53,8,0,9.39,4.54C200.85,182.21,201.51,184.45,201.26,186.48Zm7.21-13.35c-1.05,1.49-2,3.52-4.33,3.24-2-.24-2.69-2.12-3.49-3.65-1.91-3.7-3.74-12.34-3.8-18.26.51-2.4-.45-6.63,3-7.82,3.78-1.32,6,2.54,8,5C212.7,157.56,212.85,166.89,208.47,173.13Z"/></g></g></svg>