<svg xmlns="http://www.w3.org/2000/svg" viewBox="0 0 300 300"><defs><style>.cls-1{fill:none;}.cls-2{fill:#fff;}</style></defs><g id="レイヤー_2" data-name="レイヤー 2"><g id="レイヤー_2-2" data-name="レイヤー 2"><rect class="cls-1" width="300" height="300"/><path class="cls-2" d="M209.18,126.14V97c0-2,.08-2,2-2h17.29c1.78,0,1.87.09,1.87,1.91q0,44.85,0,89.7c0,3.48.29,6.95.52,10.42a2.16,2.16,0,0,1-1.61,2.43,80.24,80.24,0,0,1-26.4,5.57c-7.76.35-15.29-.57-22.43-3.74-11.3-5-17.73-13.84-19.82-25.89-1.28-7.4-1.2-14.81,1.26-22,4.74-13.88,14.62-22.2,28.6-25.88A52.79,52.79,0,0,1,208,126.09Zm0,39.1c0-6.62,0-13.23,0-19.84,0-.91-.26-1.31-1.18-1.44a25.45,25.45,0,0,0-9.33.14c-7.69,1.7-13.51,5.82-16,13.52a26.35,26.35,0,0,0,.42,17.09,16.62,16.62,0,0,0,11.62,11.18,30.48,30.48,0,0,0,13.2.55c1-.16,1.29-.61,1.28-1.6C209.16,178.3,209.18,171.77,209.18,165.24Z"/><path class="cls-2" d="M114.18,140.78c1.64-3.23,3.14-6.28,4.72-9.28,4.55-8.61,9.2-17.17,13.64-25.83a3.78,3.78,0,0,1,4.05-2.44c6,.15,12.07,0,18.11.07.46,0,1.15.11,1.31.4s-.09,1-.33,1.35Q142,127.63,128.32,150.17a2.58,2.58,0,0,0,0,3.18q14.5,23.61,28.9,47.31a10.12,10.12,0,0,1,.72,2.32,10.12,10.12,0,0,1-2.26.52c-6.65,0-13.3,0-20,0a4.22,4.22,0,0,1-4.24-2.52c-6-11.4-12.17-22.76-18.27-34.13-.2-.36-.42-.71-.75-1.25-.77,1.49-1.43,2.82-2.13,4.13Q101.67,185.91,93,202.06a2.65,2.65,0,0,1-2.63,1.48c-6.58,0-13.15,0-19.73,0-1.63,0-1.94-.53-1.08-2q5.75-9.48,11.51-18.93,8.63-14.16,17.27-28.31a1.72,1.72,0,0,0,0-2.08q-14-23.55-27.86-47.12a7.8,7.8,0,0,1-.52-1.45,5.9,5.9,0,0,1,1.5-.38c7,0,14.08,0,21.12,0a2.25,2.25,0,0,1,2.33,1.35c4.2,9.32,9.49,18.06,14.45,27,1.54,2.76,2.92,5.62,4.38,8.44C113.83,140.22,114,140.4,114.18,140.78Z"/></g></g></svg>